<?xml version="1.0" standalone="no"?>
<!DOCTYPE svg PUBLIC "-//W3C//DTD SVG 20010904//EN"
 "http://www.w3.org/TR/2001/REC-SVG-20010904/DTD/svg10.dtd">
<svg version="1.0" xmlns="http://www.w3.org/2000/svg"
 width="720.000000pt" height="720.000000pt" viewBox="0 0 720.000000 720.000000"
 preserveAspectRatio="xMidYMid meet">
<metadata>
Created by potrace 1.16, written by Peter Selinger 2001-2019
</metadata>
<g transform="translate(0.000000,720.000000) scale(0.100000,-0.100000)"
fill="#000000" stroke="none">
<path d="M3462 6034 c-29 -6 -72 -14 -95 -17 -204 -26 -502 -145 -717 -285
-140 -92 -351 -284 -446 -407 -73 -94 -147 -214 -205 -333 -72 -147 -72 -146
-98 -232 -83 -278 -86 -296 -86 -580 1 -176 5 -268 13 -298 7 -24 15 -55 17
-70 2 -15 10 -52 19 -82 8 -30 18 -66 22 -80 12 -47 86 -225 127 -304 39 -77
160 -262 208 -320 40 -49 211 -220 259 -259 183 -152 504 -310 740 -365 244
-58 469 -76 635 -51 39 5 88 11 110 14 37 3 62 8 185 37 173 40 391 137 550
244 127 85 166 118 292 246 212 215 389 525 456 798 53 216 57 254 57 495 0
221 -18 372 -55 469 -5 14 -8 26 -5 26 7 0 -55 171 -93 254 -173 382 -471 704
-824 889 -80 42 -298 134 -335 142 -10 2 -53 13 -96 24 -42 12 -94 24 -115 26
-20 3 -57 10 -82 14 -25 5 -119 10 -209 11 -91 0 -167 2 -170 4 -3 1 -30 -3
-59 -10z m345 -169 c12 -22 23 -56 23 -77 l0 -36 73 -12 c39 -7 86 -16 103
-21 17 -5 40 -11 50 -14 67 -14 304 -119 304 -133 0 -5 6 -9 13 -9 21 0 156
-95 233 -164 176 -158 302 -352 364 -559 l7 -25 -113 0 c-63 0 -114 4 -114 9
0 5 -16 41 -36 80 -195 382 -616 634 -1065 636 -171 0 -463 -70 -566 -138
l-23 -14 0 125 c0 141 -5 131 85 162 92 31 159 46 274 64 l115 17 2 41 c4 80
50 131 128 143 55 9 113 -21 143 -75z m-906 -492 c1 -120 4 -231 8 -246 l6
-29 25 19 c37 28 156 96 222 127 124 58 340 106 477 106 87 0 217 -23 315 -55
100 -32 227 -95 219 -108 -3 -6 -2 -7 4 -4 32 20 269 -200 347 -321 75 -115
112 -200 142 -322 16 -65 17 -73 6 -66 -8 5 -131 -9 -179 -19 -17 -4 -23 -1
-23 12 -1 51 -72 214 -131 299 -41 61 -141 161 -200 201 -152 105 -308 151
-504 148 -113 -2 -248 -25 -310 -54 -11 -6 -51 -24 -88 -40 -80 -36 -183 -101
-267 -168 -58 -47 -59 -49 -64 -108 -4 -33 -5 -504 -4 -1047 l3 -987 -55 31
c-30 17 -67 40 -82 50 l-28 19 0 1342 0 1342 73 47 c39 26 75 47 80 47 4 1 8
-97 8 -216z m2054 -118 c103 -132 226 -341 275 -470 l10 -25 -30 15 c-17 9
-35 13 -40 10 -11 -7 -20 8 -30 49 -44 174 -165 384 -326 565 l-67 76 72 -70
c40 -38 101 -106 136 -150z m-2366 -1092 l1 -1246 -27 24 c-15 13 -50 45 -77
70 l-49 46 -1 1108 c-1 1082 1 1145 28 1117 4 -4 6 -1 4 6 -2 9 104 118 119
122 1 0 2 -561 2 -1247z m-339 375 l-1 -543 -23 28 c-71 88 -132 252 -147 401
-11 105 -1 250 26 352 21 80 86 225 98 217 6 -3 7 -1 3 5 -5 9 31 81 42 82 1
0 2 -244 2 -542z m1565 367 c78 -20 173 -69 242 -124 105 -85 199 -240 205
-342 l3 -41 -71 -38 c-143 -75 -225 -144 -314 -262 -85 -112 -122 -191 -151
-320 -13 -56 -13 -56 -54 -60 -76 -8 -206 27 -285 77 l-40 25 0 519 c0 403 3
521 13 528 6 5 32 15 57 22 25 8 56 17 70 21 44 14 265 11 325 -5z m-595
-1214 l0 -1100 -57 20 c-32 10 -68 24 -80 31 l-23 11 0 1023 c0 989 1 1024 19
1033 10 6 22 7 27 3 5 -4 6 -3 1 2 -7 9 86 75 106 76 4 0 7 -495 7 -1099z
m1804 927 c3 -13 9 -56 13 -95 7 -85 17 -79 -117 -61 l-88 11 -5 56 c-3 31 -9
68 -13 84 l-6 27 105 0 c100 0 105 -1 111 -22z m243 -44 c24 -11 33 -21 33
-38 0 -13 7 -56 16 -95 9 -40 14 -74 12 -76 -3 -3 -24 5 -49 17 -24 11 -49 21
-55 21 -7 0 -14 27 -18 61 -3 34 -9 78 -12 100 -8 43 -6 43 73 10z m-577 -337
c0 -80 -11 -148 -23 -140 -6 3 -7 1 -3 -5 21 -34 -61 -235 -144 -356 -98 -142
-221 -249 -363 -316 -132 -63 -219 -82 -382 -83 -165 -1 -269 19 -375 73 l-40
20 0 80 0 79 43 -15 c99 -36 155 -46 273 -46 116 -1 180 8 271 38 219 71 411
260 488 479 14 41 45 177 45 200 0 19 7 24 48 31 26 5 73 10 105 12 l57 3 0
-54z m293 31 c67 -13 64 1 42 -201 -32 -292 -117 -519 -270 -722 -176 -234
-458 -402 -725 -433 -78 -10 -297 -5 -334 7 -17 6 -44 13 -61 15 -50 9 -156
46 -216 77 l-58 29 -3 88 -3 89 57 -23 c95 -37 227 -66 328 -71 133 -7 365 36
475 87 11 5 27 11 35 12 8 2 21 9 28 16 8 7 17 10 22 7 5 -3 10 -2 12 2 1 5
23 21 48 37 170 109 308 269 393 456 35 76 77 226 82 290 1 19 6 86 10 148 l8
112 36 -5 c20 -3 62 -11 94 -17z m347 -197 c-1 -87 -29 -254 -62 -376 -34
-126 -142 -355 -222 -470 -251 -359 -612 -592 -1048 -675 -143 -28 -454 -30
-566 -5 l-72 17 0 139 c0 79 4 139 9 139 5 0 16 -7 24 -15 8 -8 17 -12 20 -9
3 3 18 -1 34 -9 37 -21 131 -52 218 -72 92 -22 381 -23 475 -2 87 20 199 55
233 73 15 8 32 12 37 9 6 -3 10 -2 10 4 0 5 10 13 23 17 26 8 192 111 233 145
70 59 160 149 207 209 28 36 57 71 66 78 8 6 12 12 8 12 -9 0 42 82 57 92 6 4
8 8 4 8 -4 0 10 35 31 78 34 67 52 116 103 272 6 19 13 48 14 63 2 16 6 32 9
37 10 17 35 228 35 302 l0 79 60 -32 61 -32 -1 -76z m-1069 87 c-21 -92 -100
-217 -185 -295 -58 -53 -159 -110 -164 -93 -3 9 66 161 78 170 4 3 11 12 16
21 18 33 96 119 104 114 4 -2 12 6 19 18 10 20 114 95 132 96 4 1 4 -14 0 -31z
m-2188 -219 c9 -14 15 -29 12 -32 -3 -4 -2 -5 1 -3 3 3 32 -28 64 -67 32 -40
67 -81 79 -91 20 -18 21 -28 21 -240 0 -241 3 -233 -54 -136 -81 139 -169 379
-183 500 -2 19 -8 51 -13 70 -6 19 -10 60 -10 90 l0 55 33 -60 c18 -33 40 -72
50 -86z"/>
<path d="M3757 4680 c-14 -16 -29 -39 -32 -50 -10 -30 25 -91 63 -114 67 -38
147 18 147 102 0 60 -36 92 -105 92 -41 0 -52 -4 -73 -30z"/>
<path d="M2345 1975 c-33 -7 -76 -20 -96 -29 -56 -23 -135 -91 -172 -146 -19
-27 -36 -48 -38 -45 -3 2 -5 -4 -6 -13 -1 -9 -9 -42 -18 -72 -12 -40 -15 -80
-12 -145 6 -119 36 -186 127 -276 90 -89 163 -119 290 -119 58 0 104 5 126 15
20 8 40 12 45 9 5 -3 9 -1 9 4 0 5 11 14 23 19 13 6 50 36 83 66 58 54 100
122 125 202 17 54 14 158 -6 227 -15 54 -81 168 -104 182 -6 4 -9 12 -5 17 3
5 2 8 -3 7 -4 -2 -28 11 -53 27 -63 43 -86 53 -160 70 -76 17 -77 17 -155 0z
m132 -197 c61 -16 137 -88 152 -144 23 -82 9 -172 -35 -224 -89 -105 -243
-111 -336 -13 -84 88 -75 250 19 333 63 55 120 69 200 48z"/>
<path d="M4830 1972 c-72 -22 -108 -43 -146 -84 -47 -50 -64 -93 -64 -163 0
-122 55 -189 195 -236 49 -16 94 -29 102 -29 15 0 49 -17 76 -39 26 -22 22
-67 -9 -88 -49 -32 -126 -23 -202 24 -29 18 -55 33 -57 33 -7 0 -64 -65 -95
-108 l-25 -34 33 -28 c18 -15 59 -40 90 -56 50 -25 70 -29 162 -32 90 -3 112
0 152 18 61 27 105 64 140 119 24 38 28 55 28 113 0 112 -38 174 -135 222 -31
15 -64 29 -73 31 -147 30 -182 50 -182 101 0 8 11 26 25 39 44 45 137 28 211
-37 18 -16 22 -17 27 -4 3 8 27 42 53 75 46 59 47 61 29 81 -42 47 -180 101
-251 99 -16 0 -54 -8 -84 -17z"/>
<path d="M3030 1562 c0 -304 3 -411 12 -420 7 -7 44 -12 95 -12 71 0 84 3 93
19 5 11 10 77 10 148 l0 128 120 -3 120 -4 0 91 c0 50 -1 94 -2 99 -2 4 -56 5
-120 3 l-118 -3 0 81 0 81 164 0 c90 0 171 3 180 6 13 5 16 24 16 100 l0 94
-285 0 -285 0 0 -408z"/>
<path d="M3792 1553 l3 -418 95 0 95 0 3 140 3 140 122 0 c114 1 126 3 181 30
32 16 61 35 63 42 3 7 11 13 19 13 8 0 13 3 12 8 -1 4 8 27 21 51 70 135 15
314 -117 382 -54 28 -54 28 -278 29 l-224 1 2 -418z m415 201 c34 -42 38 -69
16 -106 -24 -42 -67 -57 -160 -57 l-73 -1 0 101 0 102 97 -5 c92 -5 98 -7 120
-34z"/>
</g>
</svg>
